<?xml version="1.0" standalone="no"?>
<!DOCTYPE svg PUBLIC "-//W3C//DTD SVG 20010904//EN"
 "http://www.w3.org/TR/2001/REC-SVG-20010904/DTD/svg10.dtd">
<svg version="1.0" xmlns="http://www.w3.org/2000/svg"
 width="1024.000000pt" height="1024.000000pt" viewBox="0 0 1024.000000 1024.000000"
 preserveAspectRatio="xMidYMid meet">
<metadata>
Created by potrace 1.11, written by Peter Selinger 2001-2013
</metadata>
<g transform="translate(0.000000,1024.000000) scale(0.100000,-0.100000)"
fill="#000000" stroke="none">
<path d="M445 10225 c-82 -18 -148 -48 -219 -100 -65 -46 -77 -59 -131 -133
-53 -75 -96 -189 -94 -252 1 -29 3 -27 10 17 16 95 91 253 121 253 5 0 7 4 4
8 -11 18 136 138 155 126 7 -4 9 -3 6 3 -6 10 41 34 122 62 40 14 161 16 974
19 629 2 927 0 927 -7 0 -7 -85 -12 -242 -14 -162 -1 -81 -4 242 -7 475 -4
479 -5 200 -10 -207 -4 -251 -7 -160 -10 l125 -4 -85 -6 c-72 -5 -60 -7 78 -8
l162 -2 0 -2719 0 -2720 -42 -3 c-23 -2 -43 -9 -46 -16 -3 -10 45 -12 235 -12
270 2 252 8 245 -86 l-4 -44 -89 0 -90 0 3 -320 c2 -176 0 -320 -4 -320 -4 0
-10 5 -13 10 -3 6 -31 10 -61 10 l-54 0 0 310 0 310 -40 0 -40 0 0 -280 0
-280 -22 -1 c-22 0 -22 -1 -3 -9 17 -6 14 -8 -14 -11 -33 -4 -34 -5 -17 -22
20 -19 20 -19 -66 -17 -32 1 -58 -2 -58 -7 0 -4 34 -8 75 -8 65 0 76 3 81 19
5 15 8 16 15 5 5 -8 3 -16 -4 -21 -9 -6 -9 -8 1 -8 9 0 12 -391 12 -1920 l0
-1920 -202 -2 c-191 -2 -196 -2 -78 -8 124 -6 123 -6 -80 -10 l-205 -4 205 -6
205 -6 -325 -4 -325 -5 365 -5 c201 -3 -107 -6 -685 -5 l-1050 0 -72 26 c-39
14 -97 41 -129 60 -63 38 -177 157 -169 177 3 7 1 11 -4 8 -14 -9 -62 111 -76
188 -11 60 -13 65 -14 29 -1 -60 42 -178 93 -253 70 -101 170 -177 296 -222
l65 -23 4610 -3 c3173 -2 4631 1 4678 8 249 38 428 206 481 450 15 69 16 448
14 4690 l-3 4615 -27 74 c-73 200 -217 327 -425 375 -66 15 -453 16 -4675 15
-3778 -1 -4614 -3 -4663 -14z m4907 -2066 c477 -94 861 -460 998 -949 113
-407 29 -877 -217 -1203 -24 -33 -41 -63 -37 -70 4 -7 4 -9 -1 -5 -5 5 -51
-34 -104 -85 -183 -178 -362 -277 -611 -338 -81 -20 -121 -23 -270 -24 -246 0
-392 33 -589 136 -51 27 -98 46 -104 42 -5 -3 -7 -1 -4 4 4 6 -21 30 -56 54
-86 60 -253 230 -310 316 -113 171 -190 358 -223 543 -24 129 -24 373 -1 497
45 245 159 487 308 658 314 360 761 515 1221 424z m-1981 -3469 c45 0 47 -1
52 -32 3 -18 11 -46 18 -63 6 -16 13 -37 14 -46 1 -8 19 -81 41 -162 29 -111
42 -146 53 -142 12 5 12 3 0 -11 -10 -13 -11 -18 -2 -21 7 -2 9 -12 6 -21 -4
-13 -3 -14 6 -6 7 6 13 22 15 35 1 14 5 29 8 34 7 12 76 261 80 290 2 11 6 25
9 30 4 6 12 34 19 63 l12 52 69 0 c51 0 69 -3 69 -13 0 -8 -16 -67 -35 -133
-19 -65 -33 -126 -30 -134 4 -8 3 -11 -2 -7 -8 9 -54 -143 -47 -155 3 -4 0 -8
-7 -8 -6 0 -9 -8 -6 -20 3 -11 1 -18 -4 -14 -5 3 -10 -4 -10 -15 -2 -23 -3
-29 -12 -51 -3 -8 -18 -57 -34 -109 l-28 -93 -70 0 -70 0 -19 68 c-11 38 -22
71 -25 74 -3 3 -6 10 -6 15 0 24 -38 155 -45 155 -4 0 -7 15 -8 32 0 18 -6 34
-11 36 -6 2 -9 7 -6 12 3 5 0 21 -7 37 -6 15 -13 33 -14 38 -2 9 -3 15 -9 40
-1 6 -3 18 -3 28 -1 11 -7 15 -14 11 -7 -4 -8 -3 -4 4 9 16 -4 83 -15 76 -5
-3 -6 1 -4 8 3 8 -1 36 -10 63 -19 64 -19 64 7 57 16 -4 19 -2 13 9 -6 11 -5
12 6 2 7 -7 34 -13 60 -13z m-151 0 c4 -651 4 -768 -5 -760 -14 15 -105 12
-105 -2 0 -9 -3 -9 -9 1 -5 8 -16 11 -27 7 -18 -6 -18 -5 -1 8 16 12 17 42 17
378 0 201 2 367 4 369 6 6 126 5 126 -1z m1086 -17 c74 -39 138 -137 154 -237
10 -64 15 -199 8 -212 -3 -5 -9 -29 -13 -54 -10 -63 -51 -135 -105 -182 -36
-33 -40 -39 -20 -33 14 4 22 4 18 0 -14 -15 -202 -30 -251 -21 -19 3 -56 21
-83 38 -27 18 -53 31 -57 30 -5 -1 -6 2 -2 8 3 5 -3 22 -14 37 -43 58 -62 139
-62 257 1 123 7 168 28 209 7 15 11 33 7 39 -4 6 -3 8 4 4 6 -3 13 2 17 13 8
27 86 101 113 108 17 4 20 8 11 14 -7 4 36 7 96 6 91 -2 117 -6 151 -24z m856
17 c144 -40 230 -236 200 -458 -7 -53 -22 -107 -38 -140 -29 -59 -30 -56 31
-89 17 -8 32 -17 34 -19 2 -2 -7 -28 -20 -58 -14 -35 -29 -56 -39 -56 -18 0
-53 22 -92 58 -24 22 -30 23 -59 13 -58 -20 -178 -14 -234 13 -27 12 -56 30
-64 39 -7 9 -17 14 -22 11 -5 -3 -9 -2 -8 3 1 4 -12 37 -29 73 -59 123 -66
310 -16 436 27 68 29 78 12 68 -7 -4 -8 -3 -4 5 4 6 11 9 15 6 5 -2 27 13 49
34 22 21 60 46 84 54 51 18 148 21 200 7z m4033 -14 c118 -54 175 -172 175
-361 0 -160 -32 -251 -116 -324 -53 -47 -93 -61 -176 -61 -200 0 -313 164
-295 429 11 171 80 286 194 327 62 22 160 17 218 -10z m602 5 c24 -11 54 -37
72 -61 31 -43 58 -137 43 -152 -5 -5 -35 -8 -67 -6 -55 3 -59 5 -66 32 -17 62
-75 89 -143 66 -77 -25 -73 -88 7 -126 29 -13 57 -24 63 -24 6 0 36 -10 65
-22 120 -48 158 -103 159 -226 0 -58 -5 -83 -25 -121 -40 -81 -99 -111 -216
-111 -148 0 -219 63 -253 222 -7 33 -5 34 65 43 57 7 57 7 63 -22 18 -79 79
-122 153 -108 74 14 110 99 61 145 -13 11 -59 32 -103 45 -159 49 -215 110
-215 233 0 33 5 73 11 89 15 40 57 82 104 104 55 25 166 25 222 0z m-4205
-268 c3 -248 5 -281 21 -304 36 -53 127 -64 170 -20 30 30 36 88 37 354 l0
247 66 0 66 0 -4 -297 c-4 -325 -7 -344 -66 -406 -41 -43 -84 -57 -179 -57
-95 0 -143 18 -186 70 -50 59 -57 108 -57 412 l0 278 64 0 65 0 3 -277z m938
212 l0 -65 -165 0 -165 0 0 -80 0 -80 150 0 150 0 0 -65 0 -65 -150 0 -150 0
0 -100 0 -100 170 0 170 0 0 -65 0 -65 -235 0 -235 0 0 375 0 375 230 0 230 0
0 -65z m230 -310 l0 -375 -65 0 -65 0 0 375 0 375 65 0 65 0 0 -375z m304 358
c6 -21 96 -445 97 -459 0 -5 24 99 52 231 l52 240 98 3 97 3 0 -376 0 -375
-60 0 -60 0 -1 268 -1 267 -22 -105 c-13 -58 -38 -178 -56 -267 l-33 -163 -64
0 c-35 0 -63 1 -63 3 -1 1 -25 119 -55 262 l-53 260 -1 -262 -1 -263 -60 0
-60 0 0 375 0 375 94 0 c82 0 95 -2 100 -17z m861 -95 c79 -246 198 -614 203
-626 3 -10 -12 -12 -69 -10 l-73 3 -25 83 -24 83 -116 -3 -116 -3 -24 -82 -24
-83 -69 0 c-38 0 -68 4 -68 10 0 15 217 715 227 733 2 4 35 7 73 7 l69 0 36
-112z m599 101 c51 -14 119 -79 144 -137 48 -112 54 -313 13 -421 -33 -88 -66
-130 -124 -157 -48 -22 -64 -24 -209 -24 l-158 0 0 375 0 375 148 0 c81 0 164
-5 186 -11z m-5268 -21 c4 -7 3 -8 -4 -4 -7 4 -12 2 -12 -5 0 -7 -3 -10 -6 -6
-6 5 3 27 11 27 2 0 7 -5 11 -12z m615 -571 c-10 -9 -11 -8 -5 6 3 10 9 15 12
12 3 -3 0 -11 -7 -18z m957 -602 c68 -31 93 -57 123 -130 27 -66 26 -68 -65
-84 -54 -10 -62 -9 -71 5 -5 10 -23 32 -38 50 -73 85 -220 57 -277 -52 -22
-42 -25 -62 -25 -144 0 -81 4 -102 25 -144 36 -72 88 -106 160 -106 59 0 121
19 153 48 11 9 17 30 17 54 l0 40 -79 -4 -80 -3 -3 68 c-2 38 -1 71 1 73 2 2
73 4 158 4 l153 0 0 -155 c0 -142 -2 -157 -20 -175 -11 -11 -23 -21 -27 -22
-5 -1 -37 -15 -73 -32 -119 -56 -320 -46 -398 19 -16 13 -33 21 -37 17 -5 -4
-5 -1 -1 6 4 6 3 12 -2 12 -6 0 -23 20 -38 44 -16 25 -31 43 -34 41 -3 -2 -6
7 -7 18 -1 12 -9 54 -18 92 -42 178 19 359 150 443 90 58 247 65 353 17z
m-1038 -9 c44 -23 100 -76 100 -94 0 -7 4 -11 8 -8 5 3 9 0 10 -7 0 -7 9 -32
18 -57 14 -35 18 -75 18 -180 1 -74 -2 -144 -5 -155 -25 -89 -81 -165 -147
-197 -43 -21 -64 -23 -245 -28 -108 -3 -198 -2 -200 2 -1 5 -1 176 1 380 l2
373 203 -5 c171 -4 207 -8 237 -24z m422 -350 l-2 -376 -75 0 -75 0 -2 375 -3
374 75 3 c41 2 77 2 80 1 3 0 4 -170 2 -377z m1040 0 l-2 -376 -75 0 -75 0 0
375 0 374 73 3 c39 2 74 2 77 1 3 0 4 -170 2 -377z m-1437 364 c3 -6 -1 -7 -9
-4 -18 7 -21 14 -7 14 6 0 13 -4 16 -10z m2077 -55 l-4 -65 -99 0 -99 0 0
-309 0 -309 -75 -4 -75 -3 0 313 0 312 -104 0 -104 0 -4 65 -3 65 285 0 285 0
-3 -65z m393 23 c9 -24 70 -185 135 -358 65 -173 121 -323 125 -332 6 -16 -1
-18 -77 -18 l-83 0 -30 85 -29 85 -136 0 -136 0 -28 -85 -27 -85 -80 0 c-55 0
-79 4 -79 12 0 7 31 98 69 203 38 104 90 249 116 320 25 72 53 149 62 173 l16
42 82 0 83 0 17 -42z m485 -268 l0 -310 180 0 180 0 0 -65 0 -65 -255 0 -255
0 0 375 0 375 75 0 75 0 0 -310z m-4147 -3137 c-13 -2 -33 -2 -45 0 -13 2 -3
4 22 4 25 0 35 -2 23 -4z m360 0 c-35 -2 -91 -2 -125 0 -35 2 -7 3 62 3 69 0
97 -1 63 -3z m-120 -20 c-13 -2 -33 -2 -45 0 -13 2 -3 4 22 4 25 0 35 -2 23
-4z"/>
<path d="M4490 6870 l0 -970 625 0 626 0 -3 103 -3 102 -483 3 -482 2 2 348 3
347 433 3 432 2 0 100 0 100 -432 2 -433 3 0 305 0 305 458 3 457 2 0 105 0
105 -600 0 -600 0 0 -970z"/>
<path d="M4089 4533 c-43 -37 -93 -148 -56 -127 6 4 4 -2 -7 -14 -16 -18 -18
-33 -14 -99 5 -86 39 -180 59 -167 7 4 9 3 5 -4 -8 -14 37 -49 75 -57 32 -7
80 8 112 35 39 32 59 92 65 187 9 184 -44 273 -164 273 -32 0 -51 -7 -75 -27z"/>
<path d="M4981 4525 c-55 -50 -75 -119 -69 -240 4 -73 10 -102 29 -136 30 -54
80 -89 128 -89 l36 1 -23 19 c-12 10 -28 20 -34 22 -17 6 10 98 29 98 21 0 54
-19 85 -48 l28 -25 17 39 c14 30 18 66 18 149 0 95 -3 116 -24 157 -29 60 -73
88 -135 88 -38 0 -52 -6 -85 -35z"/>
<path d="M9000 4538 c-55 -38 -74 -88 -78 -202 -5 -121 9 -176 57 -226 49 -52
95 -60 158 -29 37 19 53 35 73 74 22 44 25 62 25 160 0 96 -3 116 -24 158 -13
28 -37 57 -55 68 -44 27 -114 25 -156 -3z"/>
<path d="M7782 4367 c-18 -61 -32 -115 -32 -119 0 -5 32 -8 70 -8 50 0 70 4
70 13 0 18 -60 210 -69 219 -4 5 -21 -43 -39 -105z"/>
<path d="M8320 4315 l0 -245 68 1 c151 1 175 32 180 225 3 115 1 138 -16 177
-27 60 -51 74 -149 81 l-83 5 0 -244z"/>
<path d="M3500 3126 l0 -246 23 0 c13 0 59 3 101 7 65 5 76 9 71 22 -5 13 -4
14 6 3 11 -10 18 -6 40 18 40 43 50 84 48 201 -2 181 -42 227 -201 237 l-88 5
0 -247z"/>
<path d="M6148 3192 c-20 -59 -40 -115 -43 -124 -7 -16 1 -18 83 -18 l90 0
-39 111 c-22 62 -43 118 -47 125 -5 8 -22 -28 -44 -94z"/>
<path d="M2118 10163 c23 -2 61 -2 85 0 23 2 4 4 -43 4 -47 0 -66 -2 -42 -4z"/>
<path d="M2056 4711 c-17 -6 -17 -8 -4 -14 10 -3 19 0 22 9 3 8 4 14 3 13 -1
0 -11 -4 -21 -8z"/>
<path d="M2170 4709 c0 -5 5 -7 10 -4 6 3 10 8 10 11 0 2 -4 4 -10 4 -5 0 -10
-5 -10 -11z"/>
<path d="M2196 4705 c-3 -8 -1 -15 4 -15 6 0 10 7 10 15 0 8 -2 15 -4 15 -2 0
-6 -7 -10 -15z"/>
<path d="M2278 4713 c37 -3 51 -7 46 -16 -4 -7 -3 -8 1 -4 5 4 15 -3 22 -15 9
-18 12 -19 13 -6 0 9 -5 20 -10 23 -6 4 -8 10 -6 14 3 4 -23 8 -57 8 -60 0
-60 -1 -9 -4z"/>
<path d="M2363 4707 c-3 -6 -1 -7 4 -4 6 4 14 0 17 -9 9 -22 8 -26 -6 -18 -7
4 -8 3 -4 -5 4 -6 2 -20 -6 -29 -12 -15 -11 -16 4 -4 14 11 17 10 21 -5 2 -10
4 5 3 33 -1 34 -5 51 -14 51 -7 0 -16 -5 -19 -10z"/>
<path d="M2492 4709 c10 -7 10 -9 1 -9 -7 0 -13 -5 -13 -11 0 -5 5 -7 10 -4 6
3 10 -1 10 -10 0 -9 -4 -14 -8 -11 -5 3 -10 -16 -11 -42 -2 -62 -10 -89 -22
-71 -4 7 -11 10 -15 6 -4 -4 -2 -13 5 -20 10 -9 15 -8 25 6 7 9 21 17 31 17
16 0 17 7 12 55 -4 35 -2 55 5 55 7 0 6 5 -1 14 -7 9 -8 17 -2 20 5 3 11 1 13
-6 3 -8 7 -6 11 5 5 13 0 16 -29 15 -22 -1 -30 -4 -22 -9z"/>
<path d="M2024 4674 c-1 -13 2 -21 7 -18 11 6 12 31 2 37 -5 3 -9 -6 -9 -19z"/>
<path d="M2048 4664 c-4 -15 0 -20 16 -22 11 0 16 2 10 6 -6 4 -13 14 -16 22
-3 11 -6 9 -10 -6z"/>
<path d="M730 4666 c0 -2 8 -10 18 -17 15 -13 16 -12 3 4 -13 16 -21 21 -21
13z"/>
<path d="M2533 4610 c0 -30 2 -43 4 -27 2 15 2 39 0 55 -2 15 -4 2 -4 -28z"/>
<path d="M1390 4623 c0 -5 12 -20 28 -34 l27 -24 -25 30 c-14 17 -26 32 -27
34 -2 2 -3 0 -3 -6z"/>
<path d="M2160 4619 c0 -5 5 -7 10 -4 6 3 10 8 10 11 0 2 -4 4 -10 4 -5 0 -10
-5 -10 -11z"/>
<path d="M2372 4610 c0 -8 3 -24 7 -34 7 -19 8 -19 13 2 4 12 2 20 -2 17 -5
-3 -11 3 -13 12 -3 12 -5 13 -5 3z"/>
<path d="M1237 4549 c7 -7 15 -10 18 -7 3 3 -2 9 -12 12 -14 6 -15 5 -6 -5z"/>
<path d="M2097 4527 c-2 -15 0 -30 4 -33 5 -2 6 -11 3 -19 -3 -7 -1 -22 6 -32
9 -16 10 -15 4 6 -4 17 -3 21 6 16 9 -5 11 -4 6 4 -4 6 -2 18 4 26 8 9 8 15 2
15 -6 0 -13 -6 -15 -12 -3 -7 -6 -3 -6 10 -1 13 3 21 8 18 5 -3 11 2 13 12 4
12 -1 18 -13 18 -11 0 -19 -10 -22 -29z"/>
<path d="M2396 4545 c-3 -8 -1 -15 4 -15 6 0 10 7 10 15 0 8 -2 15 -4 15 -2 0
-6 -7 -10 -15z"/>
<path d="M1114 4537 c-18 -10 -20 -14 -9 -24 9 -8 16 -9 20 -3 3 6 0 10 -7 10
-7 1 -2 7 12 15 14 8 21 14 15 14 -5 0 -20 -5 -31 -12z"/>
<path d="M1486 4523 c-6 -14 -5 -15 5 -6 7 7 10 15 7 18 -3 3 -9 -2 -12 -12z"/>
<path d="M2420 4536 c0 -3 5 -15 12 -25 11 -18 48 -18 48 1 0 5 -6 8 -12 5 -7
-2 -21 2 -30 11 -10 8 -18 12 -18 8z"/>
<path d="M2409 4497 c6 -8 9 -17 6 -21 -3 -3 0 -2 6 3 12 10 4 31 -13 31 -7 0
-7 -4 1 -13z"/>
<path d="M2470 4480 c0 -5 -6 -7 -13 -4 -8 3 -19 -2 -26 -10 -11 -13 -9 -19
11 -38 23 -22 37 -84 16 -72 -6 4 -9 1 -6 -6 12 -38 23 -12 25 60 1 44 0 80
-2 80 -3 0 -5 -4 -5 -10z m0 -41 c0 -5 -7 -6 -15 -3 -8 4 -15 13 -15 21 0 13
3 13 15 3 8 -7 15 -16 15 -21z"/>
<path d="M2267 4464 c-8 -8 3 -34 15 -34 7 0 6 5 -1 13 -6 8 -8 17 -4 20 3 4
4 7 1 7 -2 0 -7 -3 -11 -6z"/>
<path d="M2253 4424 c4 -4 2 -13 -4 -21 -9 -10 -8 -13 4 -13 10 0 18 -13 23
-35 3 -19 12 -35 20 -35 22 0 26 18 10 47 -13 24 -15 25 -16 8 l-1 -20 -8 20
c-5 11 -6 25 -4 31 2 6 -4 14 -14 18 -9 4 -14 4 -10 0z m57 -85 c0 -6 -4 -7
-10 -4 -5 3 -10 11 -10 16 0 6 5 7 10 4 6 -3 10 -11 10 -16z"/>
<path d="M2095 4389 c-4 -6 -5 -12 -2 -15 2 -3 7 2 10 11 7 17 1 20 -8 4z"/>
<path d="M1330 4385 c0 -5 5 -17 10 -25 5 -8 10 -10 10 -5 0 6 -5 17 -10 25
-5 8 -10 11 -10 5z"/>
<path d="M2237 4366 c-4 -10 -1 -13 9 -9 15 6 19 23 5 23 -5 0 -11 -7 -14 -14z"/>
<path d="M2261 4334 c0 -11 3 -14 6 -6 3 7 2 16 -1 19 -3 4 -6 -2 -5 -13z"/>
<path d="M2224 4323 c3 -6 2 -14 -4 -18 -5 -3 -10 -11 -10 -16 0 -6 5 -7 11
-3 8 4 9 -1 5 -17 -5 -17 -4 -20 2 -9 11 18 9 56 -3 67 -4 5 -5 3 -1 -4z"/>
<path d="M2060 4310 c0 -5 5 -10 11 -10 5 0 7 5 4 10 -3 6 -8 10 -11 10 -2 0
-4 -4 -4 -10z"/>
<path d="M2472 4288 c6 -15 13 -28 17 -28 5 0 8 -14 9 -31 0 -17 8 -42 17 -55
9 -14 14 -28 12 -32 -3 -4 0 -18 6 -32 5 -14 12 -36 14 -50 9 -50 13 -32 11
38 -3 61 -6 72 -20 72 -12 0 -18 8 -18 24 0 19 4 23 20 19 15 -4 20 0 20 16 0
12 -6 21 -16 21 -8 0 -13 -4 -10 -8 2 -4 -5 -9 -17 -9 -16 -2 -18 0 -8 6 17
11 7 41 -13 41 -9 0 -12 7 -9 18 3 12 -1 19 -10 19 -12 0 -13 -6 -5 -29z"/>
<path d="M2507 4313 c-9 -9 33 -54 44 -47 14 8 10 24 -6 24 -8 0 -15 7 -15 15
0 16 -12 20 -23 8z"/>
<path d="M2545 4310 c3 -5 8 -10 11 -10 2 0 4 5 4 10 0 6 -5 10 -11 10 -5 0
-7 -4 -4 -10z"/>
<path d="M2025 4288 c3 -16 1 -28 -5 -28 -5 0 -10 -10 -10 -22 1 -23 1 -23 14
2 17 32 31 81 18 61 -8 -11 -11 -11 -16 0 -3 8 -4 2 -1 -13z"/>
<path d="M2321 4300 c0 -8 4 -22 9 -30 12 -18 12 -2 0 25 -6 13 -9 15 -9 5z"/>
<path d="M2054 4274 c-4 -10 -9 -22 -11 -26 -2 -4 2 -10 9 -14 7 -4 10 -4 6 1
-4 4 -3 16 3 27 6 11 8 22 5 25 -3 3 -9 -3 -12 -13z"/>
<path d="M680 4256 c0 -2 8 -10 18 -17 15 -13 16 -12 3 4 -13 16 -21 21 -21
13z"/>
<path d="M2030 4215 c0 -8 4 -15 10 -15 5 0 7 7 4 15 -4 8 -8 15 -10 15 -2 0
-4 -7 -4 -15z"/>
<path d="M2530 4190 c0 -5 7 -10 15 -10 8 0 15 5 15 10 0 6 -7 10 -15 10 -8 0
-15 -4 -15 -10z"/>
<path d="M766 4162 c-3 -5 1 -9 9 -9 8 0 12 4 9 9 -3 4 -7 8 -9 8 -2 0 -6 -4
-9 -8z"/>
<path d="M1469 4143 c-13 -16 -12 -17 4 -4 9 7 17 15 17 17 0 8 -8 3 -21 -13z"/>
<path d="M1066 4139 c4 -8 30 -6 38 2 3 3 -5 5 -19 5 -13 0 -22 -3 -19 -7z"/>
<path d="M1485 4129 c-4 -6 -5 -12 -2 -15 2 -3 7 2 10 11 7 17 1 20 -8 4z"/>
<path d="M1264 4098 l-19 -23 23 19 c21 18 27 26 19 26 -2 0 -12 -10 -23 -22z"/>
<path d="M2245 4101 l-90 -6 93 -5 c56 -3 94 -1 96 5 3 6 5 4 5 -2 1 -7 6 -13
12 -13 5 0 7 6 3 13 -5 7 0 6 11 -3 16 -13 18 -13 13 0 -5 18 -22 19 -143 11z"/>
<path d="M1943 4065 c-7 -7 -8 -17 -2 -26 7 -11 9 -10 9 6 0 17 2 17 10 5 5
-8 10 -10 10 -5 0 22 -15 33 -27 20z"/>
<path d="M970 4015 c13 -14 26 -25 28 -25 3 0 -5 11 -18 25 -13 14 -26 25 -28
25 -3 0 5 -11 18 -25z"/>
<path d="M2137 4023 c-4 -3 -7 -11 -7 -17 0 -6 5 -5 12 2 6 6 9 14 7 17 -3 3
-9 2 -12 -2z"/>
<path d="M654 4000 c0 -13 4 -16 10 -10 7 7 7 13 0 20 -6 6 -10 3 -10 -10z"/>
<path d="M1370 3988 c-19 -17 -28 -27 -20 -23 8 4 25 17 37 28 12 10 26 16 32
13 5 -4 12 -3 15 2 13 21 -33 7 -64 -20z"/>
<path d="M1926 3994 c-3 -9 -4 -20 0 -25 7 -12 24 -11 24 2 0 5 -4 7 -10 4 -5
-3 -10 -1 -10 4 0 6 7 11 16 11 8 0 12 5 9 10 -9 15 -22 12 -29 -6z"/>
<path d="M2410 4010 c-7 -23 -7 -39 1 -34 5 3 9 1 9 -5 0 -5 -4 -13 -10 -16
-20 -13 -10 -35 15 -33 26 2 31 9 18 22 -5 4 -13 22 -20 39 -6 18 -12 30 -13
27z m20 -70 c0 -5 -5 -10 -11 -10 -5 0 -7 5 -4 10 3 6 8 10 11 10 2 0 4 -4 4
-10z"/>
<path d="M1025 3951 c-3 -5 -2 -12 3 -15 5 -3 9 1 9 9 0 17 -3 19 -12 6z"/>
<path d="M1690 3946 c0 -3 9 -10 20 -16 11 -6 20 -8 20 -6 0 3 -9 10 -20 16
-11 6 -20 8 -20 6z"/>
<path d="M1963 3934 c7 -8 187 -11 192 -4 2 4 -41 7 -96 7 -55 1 -99 -1 -96
-3z"/>
<path d="M1938 73 c12 -2 32 -2 45 0 12 2 2 4 -23 4 -25 0 -35 -2 -22 -4z"/>
</g>
</svg>
