<svg id="Design" xmlns="http://www.w3.org/2000/svg" xmlns:xlink="http://www.w3.org/1999/xlink" viewBox="0 0 960 640"><defs><clipPath id="clip-path"><rect x="523.68" y="167.71" width="305.16" height="301" style="fill:none"/></clipPath></defs><title>Virtual-assistant-service [Converted]</title><path d="M770.3,639.63c-.62-16.58-2.08-30.91-13.61-44.39-10.5-12.28-25.23-20.3-40.51-25.58-56.39-19.5-115.57-3.82-172.06,6.39-58.54,10.58-123.25,10.77-177.2-17.67-31.33-16.51-57.78-45-64.92-79.74-10.38-50.47,17.48-98,52.28-132.25,39.38-38.81,84.64-61.38,137.1-76.24,25-7.06,51.21-18.46,63.36-41.39C571,198,551.21,181,530.37,162c-8.13-7.39-15-18-12.73-28.76,5.33-25,43.07-37.37,61.57-51.27,28-21,61.66-47.91,73.1-82H960V640C953.11,640,786,639.63,770.3,639.63Z" style="fill:#ccdbff"/><path d="M423.46,625.9c-18.4-13.1-41.17-18.12-63.26-22.84l-147.79-31.6c-20.8-4.45-42.61-9.4-58.47-23.56-25.15-22.46-27.79-60.64-45.19-89.53A98.4,98.4,0,0,0,36.09,412,96,96,0,0,0,0,415.16V640H439A94.34,94.34,0,0,0,423.46,625.9Z" style="fill:#96b3ff"/><path d="M544.35,299H810.72a14.62,14.62,0,0,1,14.62,14.62V485a0,0,0,0,1,0,0H529.74a0,0,0,0,1,0,0V313.65A14.62,14.62,0,0,1,544.35,299Z" style="fill:#0f1d8f"/><rect x="543.77" y="312.66" width="267.54" height="156.31" style="fill:#2175fb"/><polygon points="879.58 530.89 475.5 530.89 529.74 485.02 825.34 485.02 879.58 530.89" style="fill:#628aec"/><path d="M475.5,530.89H879.58a0,0,0,0,1,0,0v3a14.43,14.43,0,0,1-14.43,14.43H489.93A14.43,14.43,0,0,1,475.5,533.9v-3A0,0,0,0,1,475.5,530.89Z" style="fill:#0f1d8f"/><path d="M568.23,497.42H551.87a.56.56,0,0,1-.39-1l5.11-4.83a.54.54,0,0,1,.38-.15H572.6a.56.56,0,0,1,.42.94l-4.37,4.83A.56.56,0,0,1,568.23,497.42Z" style="fill:#96b3ff"/><path d="M594.14,497.42H577.61a.56.56,0,0,1-.43-.92l4.06-4.83a.54.54,0,0,1,.43-.2h15.79a.56.56,0,0,1,.46.88l-3.32,4.83A.56.56,0,0,1,594.14,497.42Z" style="fill:#96b3ff"/><path d="M620,497.42H603.37a.55.55,0,0,1-.47-.85l3-4.84a.56.56,0,0,1,.47-.26H622.3a.56.56,0,0,1,.51.8l-2.27,4.83A.55.55,0,0,1,620,497.42Z" style="fill:#96b3ff"/><path d="M645.9,497.42H629.15a.56.56,0,0,1-.52-.77l1.94-4.83a.58.58,0,0,1,.53-.35h16a.56.56,0,0,1,.54.7L646.45,497A.56.56,0,0,1,645.9,497.42Z" style="fill:#96b3ff"/><path d="M671.75,497.42H655a.56.56,0,0,1-.56-.66l.89-4.83a.57.57,0,0,1,.56-.46h16.07a.56.56,0,0,1,.56.58l-.16,4.83A.56.56,0,0,1,671.75,497.42Z" style="fill:#96b3ff"/><path d="M697.57,497.42h-16.8a.56.56,0,0,1-.56-.54l-.17-4.83a.57.57,0,0,1,.57-.58h16.07a.56.56,0,0,1,.55.46l.9,4.83A.56.56,0,0,1,697.57,497.42Z" style="fill:#96b3ff"/><path d="M723.37,497.42H706.62a.56.56,0,0,1-.55-.42l-1.21-4.83a.56.56,0,0,1,.54-.7h16a.58.58,0,0,1,.53.35l1.94,4.83A.56.56,0,0,1,723.37,497.42Z" style="fill:#96b3ff"/><path d="M749.15,497.42H732.49a.55.55,0,0,1-.51-.32l-2.27-4.83a.56.56,0,0,1,.51-.8h15.93a.56.56,0,0,1,.47.26l3,4.84A.55.55,0,0,1,749.15,497.42Z" style="fill:#96b3ff"/><path d="M774.9,497.42H758.38a.56.56,0,0,1-.46-.24l-3.32-4.83a.56.56,0,0,1,.46-.88h15.79a.54.54,0,0,1,.43.2l4.06,4.83A.56.56,0,0,1,774.9,497.42Z" style="fill:#96b3ff"/><path d="M800.65,497.42H784.29a.56.56,0,0,1-.42-.18l-4.37-4.83a.56.56,0,0,1,.41-.94h15.63a.54.54,0,0,1,.39.15l5.11,4.83A.56.56,0,0,1,800.65,497.42Z" style="fill:#96b3ff"/><path d="M560.06,506.46H542.33a.57.57,0,0,1-.39-1l6.07-5.74a.55.55,0,0,1,.39-.16h16.86a.57.57,0,0,1,.41.95l-5.2,5.74A.55.55,0,0,1,560.06,506.46Z" style="fill:#96b3ff"/><path d="M587.93,506.46H570a.56.56,0,0,1-.43-.93l4.82-5.74a.56.56,0,0,1,.43-.21h17a.57.57,0,0,1,.46.89l-3.94,5.74A.56.56,0,0,1,587.93,506.46Z" style="fill:#96b3ff"/><path d="M615.79,506.46h-18a.57.57,0,0,1-.48-.86l3.57-5.75a.57.57,0,0,1,.47-.27h17.16a.57.57,0,0,1,.51.81l-2.7,5.74A.56.56,0,0,1,615.79,506.46Z" style="fill:#96b3ff"/><path d="M550.54,517H531.22a.56.56,0,0,1-.39-1l7.27-6.89a.58.58,0,0,1,.39-.15h18.28a.56.56,0,0,1,.42.94L551,516.78A.57.57,0,0,1,550.54,517Z" style="fill:#96b3ff"/><path d="M580.71,517H561.23a.56.56,0,0,1-.44-.92l5.78-6.89a.54.54,0,0,1,.43-.2h18.44a.56.56,0,0,1,.46.88l-4.73,6.89A.56.56,0,0,1,580.71,517Z" style="fill:#96b3ff"/><path d="M610.86,517H591.24a.56.56,0,0,1-.47-.86l4.27-6.88a.55.55,0,0,1,.48-.27h18.57a.57.57,0,0,1,.51.8l-3.23,6.89A.57.57,0,0,1,610.86,517Z" style="fill:#96b3ff"/><path d="M643.63,506.46H625.51a.57.57,0,0,1-.52-.78l2.31-5.74a.57.57,0,0,1,.53-.36h17.25a.56.56,0,0,1,.54.7L644.18,506A.57.57,0,0,1,643.63,506.46Z" style="fill:#96b3ff"/><path d="M731.24,517h-110a.56.56,0,0,1-.52-.77l2.77-6.89a.57.57,0,0,1,.52-.35H728.47a.57.57,0,0,1,.52.35l2.77,6.89A.56.56,0,0,1,731.24,517Z" style="fill:#96b3ff"/><path d="M671.45,506.46H653.28a.57.57,0,0,1-.56-.67l1.07-5.74a.56.56,0,0,1,.55-.47h17.3a.57.57,0,0,1,.56.59l-.19,5.74A.56.56,0,0,1,671.45,506.46Z" style="fill:#96b3ff"/><path d="M699.24,506.46H681.07a.56.56,0,0,1-.56-.55l-.2-5.74a.57.57,0,0,1,.57-.59h17.3a.57.57,0,0,1,.55.47l1.06,5.74A.56.56,0,0,1,699.24,506.46Z" style="fill:#96b3ff"/><path d="M727,506.46H708.89a.57.57,0,0,1-.55-.43l-1.44-5.75a.56.56,0,0,1,.54-.7h17.25a.55.55,0,0,1,.52.36l2.32,5.74A.57.57,0,0,1,727,506.46Z" style="fill:#96b3ff"/><path d="M754.75,506.46h-18a.56.56,0,0,1-.51-.33l-2.7-5.74a.57.57,0,0,1,.51-.81h17.15a.57.57,0,0,1,.48.27l3.57,5.75A.57.57,0,0,1,754.75,506.46Z" style="fill:#96b3ff"/><path d="M782.48,506.46H764.59a.56.56,0,0,1-.47-.25l-3.94-5.74a.57.57,0,0,1,.46-.89h17a.56.56,0,0,1,.43.21l4.82,5.74A.56.56,0,0,1,782.48,506.46Z" style="fill:#96b3ff"/><path d="M787.53,512.48h-18.8a.55.55,0,0,1-.46-.24l-1.65-2.4a.56.56,0,0,1,.46-.88h18.44a.55.55,0,0,1,.43.2l2,2.4A.56.56,0,0,1,787.53,512.48Z" style="fill:#96b3ff"/><path d="M791.29,517H771.81a.56.56,0,0,1-.46-.24l-1.84-2.68a.57.57,0,0,1,.46-.89h19.08a.58.58,0,0,1,.43.21l2.25,2.68A.56.56,0,0,1,791.29,517Z" style="fill:#96b3ff"/><path d="M821.3,517H802a.57.57,0,0,1-.42-.19l-2.42-2.67a.57.57,0,0,1,.41-1h18.92a.59.59,0,0,1,.39.16l2.83,2.68A.56.56,0,0,1,821.3,517Z" style="fill:#96b3ff"/><path d="M761.27,517H741.66a.57.57,0,0,1-.51-.32L739.89,514a.57.57,0,0,1,.51-.81h19.21a.57.57,0,0,1,.48.27l1.66,2.68A.56.56,0,0,1,761.27,517Z" style="fill:#96b3ff"/><path d="M810.19,506.46H792.46a.53.53,0,0,1-.41-.19l-5.2-5.74a.57.57,0,0,1,.41-.95h16.86a.57.57,0,0,1,.39.16l6.07,5.74A.57.57,0,0,1,810.19,506.46Z" style="fill:#96b3ff"/><g style="clip-path:url(#clip-path)"><polygon points="648.36 321.44 654.29 291.34 694.99 290.22 701.48 316.57 716.39 345.53 679.24 376.9 638.69 347.89 648.36 321.44" style="fill:#f4d37e"/><path d="M712.81,239c0,35.08-16.92,63.53-37.79,63.53S637.23,274,637.23,239s16.92-45.49,37.79-45.49S712.81,203.87,712.81,239Z" style="fill:#f4d37e"/><path d="M716.76,208.92c3.42,12-5.69,65.48-10.83,76.32s-16.46,17.11-32,17.25c-19.77.17-26.47-9.59-30.46-15.29s-4.34-16.66-9.47-57.74,27.43-46.59,39.41-46.59,17.64-.19,19.92,7.8C710.44,189.72,713.34,196.94,716.76,208.92Zm-37.85,5.94c-10.92,5.07-30.25-5.18-37.64,3.14s-2.84,34.83-.42,46c1,4.4,13.49.94,21.2,5-10.61,10,0,18.54,11.67,18.54,11.07,0,21.57-3.53,14.51-17.07,5.42-5.88,17.07-.29,19.42-5.3,3.39-7.18,1.5-40.67,1.5-40.67-4.62-1.38-15.24-14.31-15.24-24A31.74,31.74,0,0,1,678.91,214.86Z" style="fill:#232323"/><path d="M662.05,236.66c0,3-1.65,5.41-3.7,5.41s-3.69-2.42-3.69-5.41,1.65-5.42,3.69-5.42S662.05,233.67,662.05,236.66Z" style="fill:#232323"/><path d="M693.65,236.66c0,3-1.65,5.41-3.69,5.41s-3.69-2.42-3.69-5.41,1.65-5.42,3.69-5.42S693.65,233.67,693.65,236.66Z" style="fill:#232323"/><path d="M663.66,274h21.76s-2.35,9.41-10,9.41S664.58,277.93,663.66,274Z" style="fill:#fff"/><path d="M674.54,242.07s-13.88,22.23,0,22.2Z" style="fill:#deb449"/><path d="M632.54,242.36a39.38,39.38,0,0,1-.58-6.74c0-22.65,19.06-37.19,42.57-37.19s42.58,14.54,42.58,37.19a39.38,39.38,0,0,1-.59,6.74h4.89c1.16-4,2.21-8.26,1.79-12.61C721.14,208.5,704.29,188,674.53,188c-26.88,0-48.14,22.16-48.14,44.56a27.42,27.42,0,0,0,1.27,9.84Z" style="fill:#808285"/><path d="M670.34,291.34H654.29c-10.72,0-19.45-6.86-19.45-27.77h2.25c0,17.1,7.72,25.53,17.2,25.53h16.05Z" style="fill:#808285"/><path d="M679.92,290.22c0,2-3,3.55-6.62,3.55s-6.62-1.59-6.62-3.55,3-3.55,6.62-3.55S679.92,288.26,679.92,290.22Z" style="fill:#f34f46"/><path d="M627.84,227.28h4.39a4.86,4.86,0,0,1,4.86,4.86v30.52a4.86,4.86,0,0,1-4.86,4.86h-4.39a9.09,9.09,0,0,1-9.09-9.09V236.36A9.09,9.09,0,0,1,627.84,227.28Z" transform="translate(-23.49 70.91) rotate(-6.34)" style="fill:#f34f46"/><path d="M721.88,227.28h4.39a4.86,4.86,0,0,1,4.86,4.86v30.52a4.86,4.86,0,0,1-4.86,4.86h-4.39a9.09,9.09,0,0,1-9.09-9.09V236.36A9.09,9.09,0,0,1,721.88,227.28Z" transform="translate(1412.16 573.07) rotate(-173.66)" style="fill:#f34f46"/><path d="M685.42,185.85s-2.95,9.66-20,9.69S643.11,197,643.11,197,655.68,183.53,685.42,185.85Z" style="fill:#232323"/><path d="M653.52,338.92c8,18.35,33.41,20.23,44.9,3.82,2.72-3.89,4.42-7.61,4-10.53-1.53-10.87-2.24-20.88-2.24-20.88l39,27.31s17.43,122.55-1.55,160l-10,16.59s-45.51,23.54-103.92-2.57l-13.27-26.8-6.54-124.69s5.33-24,8-25.78,38.4-24.06,38.4-24.06a67.7,67.7,0,0,0,2.34,25.18A24,24,0,0,0,653.52,338.92Z" style="fill:#628aec"/><path d="M635.62,406.37s20.4,14.47,33.2,11.29a42,42,0,0,1-30.77-.09C621.68,410.94,635.62,406.37,635.62,406.37Z" style="fill:#2175fb"/><path d="M644.93,421.31l3.69,21.15L651,476.63,653,495s-16.58-1.62-19.52-4.48S644.93,421.31,644.93,421.31Z" style="fill:#2175fb"/><path d="M708.32,421l-1.18,16.41-.67,22.73,10.39,32.5s6.34-.44,9.18-3.36S708.32,421,708.32,421Z" style="fill:#2175fb"/><path d="M720.48,408.12s-21.23,13.62-33.83,9.91a41.8,41.8,0,0,0,30.74,1.17C734.13,413.25,720.48,408.12,720.48,408.12Z" style="fill:#2175fb"/><path d="M791.75,567.57c-2.7-.07-35.8,11.82-48.62,10.15,0,0-29.77-90.17-31.38-107.13s-7.61-148.17-11.56-159.26c0,0,58.85,5.44,65.76,17.12s21.43,86.07,21.43,86.07l15.4,59.26s-30.59,15.9-39.33,13.65-12.68-5-12.68-5Z" style="fill:#1e084e"/><path d="M650.28,311.32S644.55,560.56,626.94,580l-57.73-19.92,18.34-21.47,13.19-50.36s-6.56,3.95-13.36,1.72-29.61-14-29.61-14l10.88-59.86s10.26-65.3,16.91-86.09C606.38,317.09,624.82,318.66,650.28,311.32Z" style="fill:#1e084e"/><path d="M735.64,382.35s7,96.93,15.13,100.07c1.65,3.9,3.86,8,3.86,8l-11.39-8.25-7.85-35Z" style="fill:#0c031f"/><path d="M609.9,379.24s3.4,96.84-4.88,99.57c-1.84,3.81-4.24,7.8-4.24,7.8l11.77-7.67,1.81-27.74Z" style="fill:#0c031f"/></g><polygon points="922.24 211.29 880.16 232.6 888.5 247.69 922.24 211.29" style="fill:#0f1d8f"/><polygon points="922.24 211.29 888.59 234.55 888.5 247.69 922.24 211.29" style="fill:#628aec"/><polygon points="922.24 211.29 866.56 226.72 880.16 232.6 922.24 211.29" style="fill:#2175fb"/><polygon points="922.24 211.29 888.59 234.55 905.37 240.41 922.24 211.29" style="fill:#2175fb"/><path d="M739,296.05a.72.72,0,0,1,.45-.94c1.22-.43,2.45-.92,3.64-1.46a.74.74,0,0,1,1,.36.75.75,0,0,1-.37,1c-1.24.56-2.5,1.06-3.76,1.51a.93.93,0,0,1-.23,0A.73.73,0,0,1,739,296.05Zm8.65-3.91a.72.72,0,0,1,.26-1c1.52-.91,3.05-1.93,4.52-3a.74.74,0,0,1,.88,1.18,53.66,53.66,0,0,1-4.65,3.1.65.65,0,0,1-.36.1A.73.73,0,0,1,747.63,292.14Zm8.94-6.44a.72.72,0,0,1,.06-1c1.32-1.19,2.63-2.48,3.89-3.82a.73.73,0,0,1,1,0,.74.74,0,0,1,0,1c-1.3,1.37-2.64,2.68-4,3.9a.78.78,0,0,1-.47.19A.75.75,0,0,1,756.57,285.7Zm7.65-7.94a.72.72,0,0,1-.11-1c1.12-1.39,2.22-2.86,3.28-4.37a.74.74,0,0,1,1.21.84c-1.08,1.55-2.21,3-3.35,4.45a.71.71,0,0,1-1,.11Zm60.13-10.51a.73.73,0,0,1,.7-.77c1.84-.09,3.68-.21,5.47-.37a.73.73,0,0,1,.14,1.46c-1.82.17-3.68.29-5.55.38h0A.73.73,0,0,1,824.35,267.25Zm-4.78.84c-1.83,0-3.69,0-5.55-.09a.74.74,0,1,1,.05-1.47c1.84.06,3.69.09,5.49.08a.74.74,0,0,1,.74.74.73.73,0,0,1-.71.73Zm-48.94.7a.73.73,0,0,1-.24-1c.93-1.54,1.85-3.14,2.71-4.75a.74.74,0,1,1,1.3.69c-.88,1.64-1.81,3.27-2.76,4.83a.73.73,0,0,1-.61.35A.76.76,0,0,1,770.63,268.79Zm64.72-2.47a.72.72,0,0,1,.62-.83c1.83-.26,3.65-.56,5.41-.9a.73.73,0,1,1,.28,1.44c-1.78.35-3.63.65-5.48.91h-.09A.73.73,0,0,1,835.35,266.32Zm-26.87,1.38-2.16-.17c-1.13-.1-2.26-.22-3.37-.37a.73.73,0,1,1,.19-1.45c1.09.14,2.2.26,3.31.36l2.14.17a.74.74,0,0,1,.68.78.74.74,0,0,1-.71.69Zm-11-1.46c-1.82-.37-3.64-.82-5.41-1.33a.73.73,0,1,1,.4-1.41c1.74.5,3.52.93,5.31,1.3a.74.74,0,0,1-.13,1.46Zm48.73-1.95a.73.73,0,0,1,.53-.89c1.79-.46,3.56-1,5.25-1.53a.75.75,0,0,1,.93.47.74.74,0,0,1-.47.93c-1.72.56-3.52,1.09-5.35,1.55a.41.41,0,0,1-.16,0A.74.74,0,0,1,846.19,264.29Zm10.5-3.34a.74.74,0,0,1,.4-1c1.71-.7,3.37-1.47,4.95-2.28a.74.74,0,0,1,.68,1.31c-1.62.83-3.33,1.61-5.07,2.33a.75.75,0,0,1-.26,0A.73.73,0,0,1,856.69,261Zm-69.93,2.23c-1.75-.65-3.48-1.37-5.15-2.14a.74.74,0,1,1,.62-1.34c1.63.76,3.33,1.47,5,2.1a.74.74,0,0,1-.24,1.43A.86.86,0,0,1,786.76,263.18ZM775.9,259.1a.73.73,0,0,1-.35-1l.09-.21c-1.26-.75-2.52-1.54-3.73-2.36a.73.73,0,1,1,.82-1.22c1.15.78,2.33,1.52,3.52,2.23.52-1.17,1-2.33,1.45-3.47a.73.73,0,0,1,.95-.42.74.74,0,0,1,.42.95c-.48,1.22-1,2.45-1.55,3.7a.73.73,0,0,1,.13.89.73.73,0,0,1-.7.37l-.07.16a.74.74,0,0,1-.65.42A.78.78,0,0,1,775.9,259.1ZM866.54,256a.73.73,0,0,1,.23-1,50.12,50.12,0,0,0,4.42-3.16.74.74,0,0,1,1,.12.73.73,0,0,1-.12,1,54.7,54.7,0,0,1-4.55,3.25.75.75,0,0,1-.37.11A.74.74,0,0,1,866.54,256Zm8.71-6.74a.73.73,0,0,1,0-1,44.46,44.46,0,0,0,3.61-4.05.74.74,0,0,1,1-.12.73.73,0,0,1,.12,1,46,46,0,0,1-3.73,4.18.72.72,0,0,1-1,0Zm-107.83,3c-1.44-1.16-2.86-2.39-4.2-3.66a.74.74,0,0,1,0-1,.73.73,0,0,1,1,0c1.32,1.25,2.7,2.45,4.11,3.58a.73.73,0,0,1-.44,1.31A.67.67,0,0,1,767.42,252.25ZM780,248.86a.74.74,0,0,1-.49-.92c.55-1.77,1-3.54,1.4-5.27a.73.73,0,0,1,1.43.31c-.39,1.77-.87,3.59-1.43,5.39a.73.73,0,0,1-.68.52A.91.91,0,0,1,780,248.86Zm-20.66-4.26c-1.23-1.38-2.42-2.82-3.55-4.3a.74.74,0,0,1,1.17-.89c1.1,1.45,2.27,2.86,3.48,4.2a.74.74,0,0,1-.06,1,.75.75,0,0,1-.47.19A.74.74,0,0,1,759.33,244.6Zm23.13-6.48a.74.74,0,0,1-.64-.82,53.12,53.12,0,0,0,.38-5.42.71.71,0,0,1,.74-.73.74.74,0,0,1,.73.75,53.43,53.43,0,0,1-.39,5.58.74.74,0,0,1-.71.64Zm-29.88-2.38c-1-1.55-1.94-3.17-2.82-4.8a.73.73,0,1,1,1.29-.7c.86,1.6,1.8,3.18,2.77,4.7a.74.74,0,0,1-.22,1,.76.76,0,0,1-.38.11A.74.74,0,0,1,752.58,235.74ZM782,226.45l0-.21a36,36,0,0,0-.93-5.11.74.74,0,0,1,1.43-.36,39.06,39.06,0,0,1,1,5.31l0,.22a.74.74,0,0,1-.66.81h-.06A.72.72,0,0,1,782,226.45Zm-34.66-.52c-.74-1.68-1.44-3.42-2.06-5.17a.73.73,0,0,1,.44-.94.72.72,0,0,1,.94.45c.62,1.71,1.3,3.41,2,5.07a.73.73,0,0,1-.37,1,.71.71,0,0,1-.28.06A.75.75,0,0,1,747.3,225.93Zm32.05-10a40.72,40.72,0,0,0-2.34-4.89.74.74,0,0,1,1.28-.73,41.38,41.38,0,0,1,2.42,5.07.73.73,0,0,1-.66,1A.73.73,0,0,1,779.35,216Zm-35.8-.53-.24-.89a22.77,22.77,0,0,1-.73-4.69.74.74,0,0,1,.71-.77h0a.73.73,0,0,1,.75.7,21,21,0,0,0,.68,4.38l.24.88a.74.74,0,0,1-.51.91l-.18,0A.73.73,0,0,1,743.55,215.45ZM774,206.58a31.63,31.63,0,0,0-3.64-4,.74.74,0,0,1,0-1,.73.73,0,0,1,1,0,33.78,33.78,0,0,1,3.8,4.16.73.73,0,0,1-.13,1,.7.7,0,0,1-.43.15A.72.72,0,0,1,774,206.58Zm-30.36-1.51a.72.72,0,0,1-.52-.89,13.39,13.39,0,0,1,2.57-5.19.73.73,0,0,1,1-.1.72.72,0,0,1,.1,1,12,12,0,0,0-2.28,4.63.74.74,0,0,1-.69.55A.76.76,0,0,1,743.67,205.07Zm22.45-5.71a23.81,23.81,0,0,0-4.84-2.25.73.73,0,1,1,.46-1.39,24.62,24.62,0,0,1,5.14,2.38.74.74,0,0,1-.36,1.37A.76.76,0,0,1,766.12,199.36ZM750,196.53a.74.74,0,0,1,.42-1,14.33,14.33,0,0,1,5.7-.93.74.74,0,0,1,0,1.47,13,13,0,0,0-5.11.83.82.82,0,0,1-.25.06A.77.77,0,0,1,750,196.53Z" style="fill:#2175fb"/><path d="M865.76,174.26h-6.69a.83.83,0,0,1,0-1.66h6.69a.83.83,0,0,1,0,1.66Zm-13.27,0h-6.58a.83.83,0,0,1,0-1.66h6.58a.83.83,0,0,1,0,1.66Zm-13.16,0h-6.58a.83.83,0,1,1,0-1.66h6.58a.83.83,0,1,1,0,1.66Zm-13.16,0h-6.58a.83.83,0,1,1,0-1.66h6.58a.83.83,0,0,1,0,1.66Zm-13.16,0h-6.59a.83.83,0,0,1,0-1.66H813a.83.83,0,0,1,0,1.66Zm-13.17,0h-6.58a.83.83,0,1,1,0-1.66h6.58a.83.83,0,1,1,0,1.66Zm-13.16,0H780.1a.83.83,0,1,1,0-1.66h6.58a.83.83,0,0,1,0,1.66Zm-13.16,0h-6.58a.83.83,0,1,1,0-1.66h6.58a.83.83,0,0,1,0,1.66Zm-13.16,0h-3.64a27.82,27.82,0,0,1-3-.16.84.84,0,0,1,.19-1.66,24.33,24.33,0,0,0,2.84.16h3.64a.83.83,0,0,1,0,1.66Zm111.91-.84a.84.84,0,0,1-.81-.62.83.83,0,0,1,.6-1,25.23,25.23,0,0,0,5.89-2.37.83.83,0,0,1,.81,1.46,26.88,26.88,0,0,1-6.28,2.52Zm-124.87-.86a.72.72,0,0,1-.29-.06,27.08,27.08,0,0,1-6-3.19.83.83,0,1,1,1-1.36,25.25,25.25,0,0,0,5.61,3,.83.83,0,0,1,.48,1.07A.84.84,0,0,1,747.4,172.56Zm136.25-5.46a.87.87,0,0,1-.61-.26.84.84,0,0,1,0-1.18,25.35,25.35,0,0,0,4-4.91.84.84,0,0,1,1.15-.26.85.85,0,0,1,.26,1.15,27.67,27.67,0,0,1-4.3,5.23A.85.85,0,0,1,883.65,167.1ZM736.77,165a.83.83,0,0,1-.63-.29,27.15,27.15,0,0,1-3.71-5.67.84.84,0,0,1,.39-1.11.83.83,0,0,1,1.11.39,25.46,25.46,0,0,0,3.48,5.31.84.84,0,0,1-.1,1.17A.81.81,0,0,1,736.77,165Zm153.81-8.95a1.18,1.18,0,0,1-.25,0,.83.83,0,0,1-.54-1,24.91,24.91,0,0,0,1.16-6.24.85.85,0,0,1,.88-.79.83.83,0,0,1,.78.88,27.28,27.28,0,0,1-1.23,6.66A.85.85,0,0,1,890.58,156.08Zm-159.5-2.75a.84.84,0,0,1-.82-.67,27.1,27.1,0,0,1-.54-5.4V146a.83.83,0,0,1,.83-.83.84.84,0,0,1,.84.83v1.31a26,26,0,0,0,.5,5.07.83.83,0,0,1-.65,1Zm160.74-10.28a.84.84,0,0,1-.83-.84v-6.58a.84.84,0,0,1,1.67,0v6.58A.85.85,0,0,1,891.82,143.05Zm0-13.17a.83.83,0,0,1-.83-.83v-6.58a.84.84,0,0,1,1.67,0v6.58A.84.84,0,0,1,891.82,129.88Zm0-13.16a.83.83,0,0,1-.83-.83v-6.58a.84.84,0,0,1,1.67,0v6.58A.84.84,0,0,1,891.82,116.72Zm-161.27-2.84a.83.83,0,0,1-.83-.83v-5c0-.55,0-1.09,0-1.63a.83.83,0,0,1,1.66.09c0,.51,0,1,0,1.54v5A.84.84,0,0,1,730.55,113.88ZM891.29,103.6a.82.82,0,0,1-.81-.67,25.55,25.55,0,0,0-2.05-6,.82.82,0,0,1,.38-1.11.83.83,0,0,1,1.11.38,26.83,26.83,0,0,1,2.19,6.41.83.83,0,0,1-.65,1Zm-159.48-2.75a1.09,1.09,0,0,1-.25,0,.83.83,0,0,1-.54-1,27,27,0,0,1,2.87-6.13.83.83,0,0,1,1.15-.26.84.84,0,0,1,.26,1.15,25.15,25.15,0,0,0-2.7,5.75A.83.83,0,0,1,731.81,100.85ZM885.57,91.9a.83.83,0,0,1-.63-.29,25.13,25.13,0,0,0-4.7-4.28.83.83,0,0,1,1-1.36,27.06,27.06,0,0,1,5,4.56.83.83,0,0,1-.09,1.17A.81.81,0,0,1,885.57,91.9Zm-146.8-2.06a.87.87,0,0,1-.61-.26.84.84,0,0,1,0-1.18,27.71,27.71,0,0,1,5.46-4,.83.83,0,0,1,1.13.32.82.82,0,0,1-.32,1.13,25.49,25.49,0,0,0-5.13,3.75A.8.8,0,0,1,738.77,89.84ZM874.93,84.4a1,1,0,0,1-.3-.05,25.12,25.12,0,0,0-6.18-1.49.83.83,0,1,1,.19-1.65,27,27,0,0,1,6.58,1.58.83.83,0,0,1-.29,1.61Zm-124.77-.86a.82.82,0,0,1-.8-.62.83.83,0,0,1,.59-1,27.15,27.15,0,0,1,6.72-.85h0a.83.83,0,1,1,0,1.66,25.19,25.19,0,0,0-6.3.8A.76.76,0,0,1,750.16,83.54ZM862,82.71h-6.58a.83.83,0,0,1,0-1.66H862a.83.83,0,1,1,0,1.66Zm-13.16,0h-6.58a.83.83,0,0,1,0-1.66h6.58a.83.83,0,1,1,0,1.66Zm-13.16,0h-6.59a.83.83,0,0,1,0-1.66h6.59a.83.83,0,1,1,0,1.66Zm-13.17,0H815.9a.83.83,0,0,1,0-1.66h6.58a.83.83,0,1,1,0,1.66Zm-13.16,0h-6.58a.83.83,0,0,1,0-1.66h6.58a.83.83,0,1,1,0,1.66Zm-13.16,0h-6.58a.83.83,0,0,1,0-1.66h6.58a.83.83,0,1,1,0,1.66Zm-13.16,0h-6.59a.83.83,0,0,1,0-1.66H783a.83.83,0,1,1,0,1.66Zm-13.17,0h-6.58a.83.83,0,0,1,0-1.66h6.58a.83.83,0,1,1,0,1.66Z" style="fill:#f34f46"/><path d="M725.16,120.67a1,1,0,0,1-.48-.14.91.91,0,0,1-.29-1.26l1.93-3.08a.92.92,0,0,1,1.26-.29.91.91,0,0,1,.28,1.25l-1.93,3.09A.92.92,0,0,1,725.16,120.67Z" style="fill:#f34f46"/><path d="M703.84,154.71a.87.87,0,0,1-.49-.14.91.91,0,0,1-.28-1.25l3.55-5.68a.91.91,0,0,1,1.25-.28.9.9,0,0,1,.29,1.25l-3.55,5.67A.91.91,0,0,1,703.84,154.71Zm7.1-11.35a.86.86,0,0,1-.48-.14.91.91,0,0,1-.29-1.25l3.56-5.68a.91.91,0,0,1,1.54,1l-3.55,5.68A.93.93,0,0,1,710.94,143.36ZM718.05,132a.86.86,0,0,1-.48-.14.91.91,0,0,1-.29-1.25l3.56-5.67a.91.91,0,1,1,1.54,1l-3.56,5.68A.9.9,0,0,1,718.05,132Z" style="fill:#f34f46"/><path d="M695.35,165.64l4.16-6.65a.92.92,0,0,1,1.25-.29,1.37,1.37,0,0,0,1.38,1.35.91.91,0,0,1-.26,1.26Z" style="fill:#f34f46"/><path d="M706.45,158.1a.9.9,0,0,1-.76-.4.92.92,0,0,1,.25-1.27l5.06-3.35a.91.91,0,1,1,1,1.51L707,158A.94.94,0,0,1,706.45,158.1Zm10.12-6.71a.89.89,0,0,1-.76-.41.91.91,0,0,1,.26-1.26l5.06-3.35a.9.9,0,0,1,1.26.25.91.91,0,0,1-.26,1.26l-5.06,3.36A.91.91,0,0,1,716.57,151.39Z" style="fill:#f34f46"/><path d="M726.69,144.68a.91.91,0,0,1-.5-1.67l3-2a.91.91,0,0,1,1,1.52l-3,2A.91.91,0,0,1,726.69,144.68Z" style="fill:#f34f46"/><path d="M884.05,95.67H777.12a25.69,25.69,0,0,0-25.69,25.69v38.49a25.69,25.69,0,0,0,25.69,25.69h69.56L835.29,205.4l33-19.86h15.8a25.69,25.69,0,0,0,25.69-25.69V121.36A25.69,25.69,0,0,0,884.05,95.67Z" style="fill:#f34f46"/><rect x="526.56" y="229.47" width="53.42" height="44.32" rx="11.18" style="fill:#f34f46"/><path d="M577.61,233.76,563.07,248.3c-.25.25-.51.49-.77.71a13.86,13.86,0,0,1-18,0,10.41,10.41,0,0,1-.78-.71l-1-1L529,233.76a11.33,11.33,0,0,1,1.74-1.79l13.53,13.52,1,1a7.46,7.46,0,0,0,.79.7,11.33,11.33,0,0,0,14.48,0,8.88,8.88,0,0,0,.79-.71l1-1L575.86,232A11.86,11.86,0,0,1,577.61,233.76Z" style="fill:#fff"/><path d="M545.25,246.52a7.46,7.46,0,0,0,.79.7L544.25,249l-17.11,17.11a11,11,0,0,1-.56-3l15.86-15.86,1.78-1.78Z" style="fill:#fff"/><path d="M580,263.13a11.38,11.38,0,0,1-.55,3L562.3,249l-1.78-1.78a8.88,8.88,0,0,0,.79-.71l1-1,1.76,1.76Z" style="fill:#fff"/><path d="M636.09,126.34A37.82,37.82,0,1,0,573.62,155a27,27,0,0,1,9.51,20.43h30.28A27.1,27.1,0,0,1,623,155,37.69,37.69,0,0,0,636.09,126.34Z" style="fill:#96b3ff"/><rect x="582.98" y="177.97" width="30.59" height="4.75" style="fill:#2175fb"/><path d="M605.28,193.93h-14a8.29,8.29,0,0,1-8.29-8.29h30.59A8.3,8.3,0,0,1,605.28,193.93Z" style="fill:#2175fb"/><path d="M591.5,114.22c-6.78,0-9.47,2.81-9.47,8.84,0,.56-1,.56-1,0,0-6-2.15-8.84-9.48-8.84-.54,0-.54-1.06,0-1.06,7.56,0,9.48-3.49,9.48-8.82,0-.56,1-.56,1,0,0,6.35,2.57,8.82,9.47,8.82C592.05,113.16,592.05,114.22,591.5,114.22Z" style="fill:#2175fb"/><path d="M537.26,150.1c-.5-1.27-1-2.58-1.39-3.89l16.45-5.31c.31,1,.66,1.92,1,2.85Zm123.32-3.61-16.43-5.39c.32-1,.6-1.93.85-2.9l16.74,4.33C661.4,143.85,661,145.18,660.58,146.49ZM551.52,114l-16.75-4.3c.34-1.32.73-2.66,1.16-4l16.44,5.36C552.06,112,551.77,113,551.52,114Zm92.68-2.83c-.31-1-.66-1.92-1-2.85l16.07-6.38c.51,1.27,1,2.58,1.41,3.89ZM567.54,88.82l-11-13.33c1.05-.87,2.14-1.72,3.25-2.52l10.16,14C569.13,87.55,568.32,88.18,567.54,88.82ZM626.65,87c-.81-.59-1.65-1.16-2.5-1.71l9.28-14.58c1.16.73,2.3,1.51,3.4,2.31Zm-31.38-9.13-1.06-17.26c1.35-.08,2.71-.12,4.06-.12h.27l-.23,7.31v10h0C597.27,77.78,596.26,77.81,595.27,77.87Z" style="fill:#2175fb"/><path d="M451.9,546.85c0,3.75-17,6.8-38,6.8s-38-3-38-6.8,17-6.79,38-6.79S451.9,543.1,451.9,546.85Z" style="fill:#96b3ff"/><path d="M449.4,548.73c-8.08,2.44-20.59,2.27-29.37,0-2.08-.54-4-1.52-4.42-3.63l-8.36-41.9h54.93l-8.36,41.9C453.4,547.21,451.46,548.1,449.4,548.73Z" style="fill:#2175fb"/><ellipse cx="434.8" cy="503.2" rx="27.37" ry="4.01" style="fill:#0f1d8f"/><path d="M461,508.94a94.24,94.24,0,0,1-18.67,12c-1.89.92-3.9,1.84-5.13,3.54s-1.28,4.46.49,5.61c.74.48,1.85.83,1.85,1.72a1.64,1.64,0,0,1-.51,1c-1.86,2.13-4.67,3.14-6.83,5s-3.56,5.29-1.65,7.37a8.3,8.3,0,0,0,3.1,2.17c1.55.59,1.89,3.2,2.5,3.2a43,43,0,0,0,13.22-1.76,4.51,4.51,0,0,0,4.42-3.63Z" style="fill:#0f1d8f"/><path d="M425.23,294.29c-1.76-7.25-1.38-13.92-.17-21.28s4.46-14.3,11.79-12.93c7,1.31,9.55,9.85,9.95,16,.56,8.55-2.19,16.75-3.12,25.16-1.41,12.73,1.51,26.64,4.84,39,2.68,9.91,6,17.93,8.62,29.52a60.87,60.87,0,0,1-.29,26.6c-2.35,9.67-17.73,44.29-20.72,79.79-1.42-45.41-10.44-58.13-13.44-73.62-1.24-6.4-2.59-12.73-2-19.22,1.47-16.53,6.06-32.62,8.81-49S429.39,311.43,425.23,294.29Z" style="fill:#2175fb"/><path d="M434.49,504.17h-.08a1,1,0,0,1-.88-1c7-81.51,1.41-221.32,1.35-222.72a1,1,0,1,1,1.92-.08c.06,1.4,5.67,141.33-1.35,223A1,1,0,0,1,434.49,504.17Z" style="fill:#08104e"/><path d="M437.88,420.42h0a1,1,0,0,1-.92-1c1.08-24,12-31.4,12.49-31.7a1,1,0,0,1,1.33.27,1,1,0,0,1-.27,1.34h0c-.11.07-10.6,7.29-11.63,30.18A1,1,0,0,1,437.88,420.42Z" style="fill:#08104e"/><path d="M438,403.05a1,1,0,0,1-1-.91c-1.44-24.33-10.47-27.74-10.56-27.77a1,1,0,0,1-.6-1.22,1,1,0,0,1,1.2-.61c.42.13,10.35,3.63,11.88,29.49a1,1,0,0,1-.9,1Z" style="fill:#08104e"/><path d="M437.94,373.15h-.09a1,1,0,0,1-.87-1.05c1.82-18.86,7.8-24.34,8-24.56a1,1,0,0,1,1.28,1.44c-.08.07-5.69,5.38-7.41,23.31A1,1,0,0,1,437.94,373.15Z" style="fill:#08104e"/><path d="M374.54,361.22c-2.11-5.24-11.21-25-9.73-31.79,3.92,1.56,14.82,18.45,18.4,26,4.35,8.79,12.83,21.85,18.65,29.85,4.68,6.4,7.34,8.08,10.83,15.27,2.59,5.11,6.61,26.31,6.89,33.93.62,14.24-3.07,17.06,1.09,43.94-8.88-33.81-27.81-53.94-30.88-64-3.51-11.42-3.61-16.06-6.32-28.27C380.61,374,381.23,377.11,374.54,361.22Z" style="fill:#2175fb"/><path d="M424.32,505.13a1,1,0,0,1-1-.89c-4.78-60.58-44.27-144.95-47.95-149.62a1.43,1.43,0,0,1-.23-.2,1,1,0,0,1,.09-1.36,1,1,0,0,1,1-.17c1.63.66,13.28,25.32,23.5,52.18s22.84,65.58,25.48,99a1,1,0,0,1-.88,1ZM376.53,354.51l-.14.11A.49.49,0,0,0,376.53,354.51Zm0,0Z" style="fill:#08104e"/><path d="M411.22,442.48a1,1,0,0,1-.93-.73c-4.47-17.21.81-25.91,1.68-26.46a1,1,0,0,1,1.26,1.42c-.25.36-5.41,7.87-1.08,24.56a1,1,0,0,1-.69,1.17A.67.67,0,0,1,411.22,442.48Z" style="fill:#08104e"/><path d="M407.35,429.79a1,1,0,0,1-.89-.61C400,412.76,393.12,412,392.36,412a1,1,0,0,1-.93-.8l.95-.17.06-1c1.45.06,9,1.24,15.81,18.42a1,1,0,0,1-.54,1.25A1.15,1.15,0,0,1,407.35,429.79Z" style="fill:#08104e"/><path d="M399.86,408.23a1,1,0,0,1-.93-.72c-3.62-13.73-1.42-20-.53-20.33a1,1,0,0,1,1.25.53,1,1,0,0,1,0,.82c-.14.32-2.24,5.49,1.2,18.49a1,1,0,0,1-.69,1.18A1,1,0,0,1,399.86,408.23Z" style="fill:#08104e"/><path d="M485,404.22c2.74-3.18,15-14.23,20.52-13.7-.63,3.1-10,14-13.7,18.48-4.68,5.16-9.79,14.88-11.78,21.33-1.63,5.18-1.27,7.38-3.45,12.15-1.67,3.26-10.26,14.45-13.44,18.53-5.95,7.43-12.48,10.13-18.77,28.66,4.2-24.21,7.58-47.78,12.19-54.78,5-7.62,7.94-9.78,14.7-16.29C478.24,412.3,476.16,413.66,485,404.22Z" style="fill:#628aec"/><path d="M440.81,505.13l-.2,0a1,1,0,0,1-.75-1.14c4.66-22.93,14.77-49.26,26.41-68.72a185.92,185.92,0,0,1,22.19-30.78c.56-.64,1.1-1.25,1.29-1.5a1,1,0,0,1,1.15-.58,1,1,0,0,1,.68.66c.17.59.14.63-1.67,2.69a184,184,0,0,0-22,30.48c-11.54,19.3-21.57,45.4-26.18,68.14A1,1,0,0,1,440.81,505.13Z" style="fill:#08104e"/><path d="M454.57,461.49a1.06,1.06,0,0,1-.42-.09,1,1,0,0,1-.44-1.29C459.1,449,466.54,447.88,468,447.77l.1,1,1,0a1,1,0,0,1-.93.93c-.76.05-7.63.83-12.67,11.25A1,1,0,0,1,454.57,461.49Z" style="fill:#08104e"/><path d="M458.47,452.91a1,1,0,0,1-.89-1.33c4.76-11.51,1.93-15.79,1.71-16.09a1,1,0,0,1,1-1.59c.05,0,4.93,4.12-1,18.42A1,1,0,0,1,458.47,452.91Z" style="fill:#08104e"/><path d="M466.05,438.56a1,1,0,0,1-.58-.19,1,1,0,0,1-.18-1.35c5.59-7.37,10.16-8.49,11.43-8.66l.18.95.94.19a1,1,0,0,1-.87.77c-.77.1-4.88,1-10.15,7.91A1,1,0,0,1,466.05,438.56Z" style="fill:#08104e"/></svg>